<?xml version="1.0" encoding="utf-8"?>
<!-- Generator: Adobe Illustrator 17.1.0, SVG Export Plug-In . SVG Version: 6.00 Build 0)  -->
<!DOCTYPE svg PUBLIC "-//W3C//DTD SVG 1.1//EN" "http://www.w3.org/Graphics/SVG/1.1/DTD/svg11.dtd">
<svg version="1.1" xmlns="http://www.w3.org/2000/svg" xmlns:xlink="http://www.w3.org/1999/xlink" x="0px" y="0px"
	 viewBox="0 0 800 500" enable-background="new 0 0 800 500" xml:space="preserve">
<g id="Layer_1">
</g>
<g id="website">
	<rect x="88.6" y="358.2" fill="#885A28" width="31.4" height="49.6"/>
	<path fill="none" stroke="#885A28" stroke-miterlimit="10" d="M53.3,415.9H26.8c-18.3,0-18.3,0-18.3-18.3v-26.4
		c0-18.3,0-18.3,18.3-18.3h26.4c18.3,0,18.3,0,18.3,18.3v26.4C71.6,415.9,71.6,415.9,53.3,415.9z"/>
	<circle fill="none" stroke="#885A28" stroke-miterlimit="10" cx="26.9" cy="370.2" r="9.9"/>
	<circle fill="none" stroke="#885A28" stroke-miterlimit="10" cx="26.9" cy="370.2" r="7.2"/>
	<circle fill="none" stroke="#885A28" stroke-miterlimit="10" cx="26.9" cy="370.1" r="4.5"/>
	<circle fill="#885A28" cx="26.9" cy="370.2" r="2.5"/>
	<circle fill="none" stroke="#885A28" stroke-miterlimit="10" cx="53.9" cy="370.2" r="9.9"/>
	<circle fill="none" stroke="#885A28" stroke-miterlimit="10" cx="53.9" cy="370.2" r="7.2"/>
	<circle fill="none" stroke="#885A28" stroke-miterlimit="10" cx="53.9" cy="370.1" r="4.5"/>
	<circle fill="#885A28" cx="53.9" cy="370.2" r="2.5"/>
	<circle fill="none" stroke="#885A28" stroke-miterlimit="10" cx="26.6" cy="396" r="9.9"/>
	<circle fill="none" stroke="#885A28" stroke-miterlimit="10" cx="26.6" cy="396" r="7.2"/>
	<circle fill="none" stroke="#885A28" stroke-miterlimit="10" cx="26.6" cy="395.9" r="4.5"/>
	<circle fill="#885A28" cx="26.6" cy="396" r="2.5"/>
	<circle fill="none" stroke="#885A28" stroke-miterlimit="10" cx="53.5" cy="396" r="9.9"/>
	<circle fill="none" stroke="#885A28" stroke-miterlimit="10" cx="53.5" cy="396" r="7.2"/>
	<circle fill="none" stroke="#885A28" stroke-miterlimit="10" cx="53.5" cy="395.9" r="4.5"/>
	<circle fill="#885A28" cx="53.5" cy="396" r="2.5"/>
	<rect x="87.2" y="24.5" fill="#0272AE" width="579.9" height="49.6"/>
	<g>
		<path fill="none" stroke="#0272AE" stroke-miterlimit="10" d="M56.5,84c0.5,0,1-0.5,1-1V10.7c0-0.5-0.5-1-1-1H19.4
			c-0.7,0-1,0.5-1,1V83c0,0.5,0.5,1,1,1L56.5,84L56.5,84z"/>
		<g>
			<polyline fill="none" stroke="#0272AE" stroke-miterlimit="10" points="23,84.2 23,87.1 20.5,87.1 20.5,84.2 			"/>
			<polyline fill="none" stroke="#0272AE" stroke-miterlimit="10" points="55.8,84.2 55.8,87.1 53.1,87.1 53.1,84.2 			"/>
		</g>
		<line fill="none" stroke="#0272AE" stroke-miterlimit="10" x1="57.7" y1="55.5" x2="18.4" y2="55.5"/>
		
			<line fill="none" stroke="#0272AE" stroke-linecap="round" stroke-linejoin="round" stroke-miterlimit="10" x1="51.3" y1="49" x2="51.3" y2="25"/>
		
			<line fill="none" stroke="#0272AE" stroke-linecap="round" stroke-linejoin="round" stroke-miterlimit="10" x1="51.3" y1="71.3" x2="51.3" y2="62.7"/>
	</g>
	<rect x="88.2" y="110.6" fill="#D88E2A" width="245.3" height="49.6"/>
	<g>
		<path fill="none" stroke="#D88E2A" stroke-miterlimit="10" d="M59.4,127.2c0-11.8-9.6-21.4-21.4-21.4s-21.4,9.6-21.4,21.4
			c0,8.2,8.1,15.3,8.1,15.3c2,1.9,4,5.9,4,8.7V165c0,2.8,0.9,4.8,3.7,4.8h11c2.8,0,3.9-2,3.9-4.8v-14.1c0-2.8,2.3-6.8,4.3-8.7
			C51.7,142.2,59.4,135.1,59.4,127.2z"/>
		<line fill="none" stroke="#D88E2A" stroke-miterlimit="10" x1="28.8" y1="160.3" x2="47.3" y2="160.3"/>
		<line fill="none" stroke="#D88E2A" stroke-miterlimit="10" x1="28.8" y1="155.7" x2="47.3" y2="155.7"/>
		<line fill="none" stroke="#D88E2A" stroke-miterlimit="10" x1="28.8" y1="165" x2="47.3" y2="165"/>
	</g>
	<g>
		<g>
			<path fill="none" stroke="#6CA1B9" stroke-miterlimit="10" d="M71.6,241c0,0.9-0.7,1.6-1.6,1.6H5.9c-0.9,0-1.6-0.7-1.6-1.6v-39.5
				c0-0.9,0.7-1.6,1.6-1.6H70c0.9,0,1.6,0.7,1.6,1.6L71.6,241L71.6,241z"/>
		</g>
		<path fill="#6CA1B9" d="M60.9,202.4c1,0,1.9,0.8,1.9,1.7s-0.8,1.7-1.9,1.7S59,205,59,204.1C59,203.2,59.9,202.4,60.9,202.4z"/>
		<path fill="#6CA1B9" d="M54.1,202.4c1,0,1.9,0.8,1.9,1.7s-0.8,1.7-1.9,1.7c-1,0-1.9-0.8-1.9-1.7S53.1,202.4,54.1,202.4z"/>
		<line fill="none" stroke="#6CA1B9" stroke-miterlimit="10" x1="25.7" y1="199.9" x2="25.7" y2="208.8"/>
		<line fill="none" stroke="#6CA1B9" stroke-miterlimit="10" x1="4.4" y1="208.8" x2="71.2" y2="208.8"/>
		<g>
			<line fill="none" stroke="#6CA1B9" stroke-miterlimit="10" x1="8.7" y1="215.8" x2="67.1" y2="215.8"/>
			<line fill="none" stroke="#6CA1B9" stroke-miterlimit="10" x1="8.7" y1="220.5" x2="67.1" y2="220.5"/>
			<line fill="none" stroke="#6CA1B9" stroke-miterlimit="10" x1="8.7" y1="225.1" x2="67.1" y2="225.1"/>
			<line fill="none" stroke="#6CA1B9" stroke-miterlimit="10" x1="8.7" y1="229.8" x2="67.1" y2="229.8"/>
			<line fill="none" stroke="#6CA1B9" stroke-miterlimit="10" x1="8.7" y1="234.3" x2="67.1" y2="234.3"/>
		</g>
	</g>
	<rect x="88.2" y="196.5" fill="#6CA1B9" width="200.2" height="49.6"/>
	<rect x="88.2" y="279.6" fill="#467979" width="160.4" height="49.6"/>
	<g>
		<path fill="none" stroke="#467979" stroke-linecap="square" stroke-miterlimit="10" d="M34.4,313.6H4.5c-0.1,0-0.2-0.1-0.2-0.2
			v-33.6c0-0.1,0.1-0.2,0.2-0.2h67.8c0.2,0,0.2,0.1,0.2,0.2v33.5c0,0.2-0.1,0.2-0.2,0.2h-29"/>
	</g>
	<path fill="none" stroke="#467979" stroke-linecap="square" stroke-miterlimit="10" d="M43.4,319.9h11.7c1.5,0,2.7,0.5,2.7,1l0,0
		c0,1,0.1,1-2.7,1H22.2c-2.7,0-2.7,0-2.7-1l0,0c0-1,2.7-1,2.7-1h12.3"/>
	<line fill="none" stroke="#467979" stroke-linecap="square" stroke-miterlimit="10" x1="34.5" y1="319.5" x2="34.5" y2="313.8"/>
	<line fill="none" stroke="#467979" stroke-linecap="square" stroke-miterlimit="10" x1="43.2" y1="319.5" x2="43.2" y2="313.8"/>
</g>
<g id="Isolation_Mode">
	<text transform="matrix(1 0 0 1 676.2666 42.1655)"><tspan x="0" y="0" fill="#0272AE" font-family="'Avenir'" font-size="22.2718">Refrigerator</tspan><tspan x="0" y="29.7" fill="#0272AE" font-family="'Avenir'" font-size="22.2718">$15.34</tspan></text>
	<text transform="matrix(1 0 0 1 350.1812 128.7359)"><tspan x="0" y="0" fill="#D88E2A" font-family="'Avenir'" font-size="22.2718">Lighting</tspan><tspan x="0" y="29.7" fill="#D88E2A" font-family="'Avenir'" font-size="22.2718">$7.02</tspan></text>
	<text transform="matrix(1 0 0 1 300.9019 211.9009)"><tspan x="0" y="0" fill="#6CA1B9" font-family="'Avenir'" font-size="22.2718">AC</tspan><tspan x="0" y="29.7" fill="#6CA1B9" font-family="'Avenir'" font-size="22.2718">$6.38</tspan></text>
	<text transform="matrix(1 0 0 1 263.1821 296.586)"><tspan x="0" y="0" fill="#467979" font-family="'Avenir'" font-size="22.2718">TV</tspan><tspan x="0" y="29.7" fill="#467979" font-family="'Avenir'" font-size="22.2718">$5.09</tspan></text>
	<text transform="matrix(1 0 0 1 135.1226 377.3858)"><tspan x="0" y="0" fill="#885A28" font-family="'Avenir'" font-size="22.2718">Electric Range</tspan><tspan x="0" y="29.7" fill="#885A28" font-family="'Avenir'" font-size="22.2718">$1.23</tspan></text>
</g>
</svg>
