<?xml version="1.0" encoding="utf-8"?>
<!-- Generator: Adobe Illustrator 17.1.0, SVG Export Plug-In . SVG Version: 6.00 Build 0)  -->
<!DOCTYPE svg PUBLIC "-//W3C//DTD SVG 1.1//EN" "http://www.w3.org/Graphics/SVG/1.1/DTD/svg11.dtd">
<svg version="1.1" xmlns="http://www.w3.org/2000/svg" xmlns:xlink="http://www.w3.org/1999/xlink" x="0px" y="0px"
	 viewBox="0 0 800 200" enable-background="new 0 0 800 200" xml:space="preserve">
<symbol  id="billsofar_x5F_desktop" viewBox="-43 -32.5 86 64.9">
	<path fill="#FFFFFF" stroke="#658C3D" stroke-linecap="round" stroke-linejoin="round" stroke-miterlimit="10" d="M28.8,32h-56.2
		c-7.9,0-15.1-5.7-15.1-13.7V-9.8c0-7.9,7.2-15.1,15.1-15.1H-7L0.6-32l7.5,7.1h20.7c8,0,13.7,7.2,13.7,15.1v28.1
		C42.5,26.2,36.8,32,28.8,32z"/>
</symbol>
<g id="Layer_1">
</g>
<g id="website">
	<g id="Color_Palette">
	</g>
</g>
<g id="Isolation_Mode">
	<g id="XMLID_1_">
		<g>
			<path fill="#95BA3E" d="M763.7,110c9.3,0,16.8,9.3,16.8,20.7s-7.5,20.7-16.8,20.7H615.1V110H763.7z"/>
			<path fill="#638D3E" d="M615.1,110v41.3H29.9c-9.3,0-16.8-9.3-16.8-20.7c0-5.7,1.9-10.9,4.9-14.6c3-3.8,7.2-6,11.9-6H615.1z"/>
		</g>
		<g>
		</g>
	</g>
	<text transform="matrix(1 0 0 1 16.7242 95.7668)" fill="#638D3E" font-family="'Avenir'" font-size="20.9314">Spent: $63.52</text>
	<g>
		<text transform="matrix(1 0 0 1 244.1729 53.5198)" fill="#6C6C6C" font-family="'Avenir'" font-size="23.1154">Your goal for June is $81.65</text>
	</g>
	<text transform="matrix(1 0 0 1 676.1837 95.7649)" fill="#95BA3E" font-family="'Avenir'" font-size="20.9314">$18.13 left</text>
</g>
</svg>
