<?xml version="1.0" encoding="utf-8"?>
<!-- Generator: Adobe Illustrator 17.1.0, SVG Export Plug-In . SVG Version: 6.00 Build 0)  -->
<!DOCTYPE svg PUBLIC "-//W3C//DTD SVG 1.1//EN" "http://www.w3.org/Graphics/SVG/1.1/DTD/svg11.dtd">
<svg version="1.1" id="Layer_1" xmlns="http://www.w3.org/2000/svg" xmlns:xlink="http://www.w3.org/1999/xlink" x="0px" y="0px"
	 viewBox="0 0 500 500" enable-background="new 0 0 500 500" xml:space="preserve">
<g>
	<path fill="none" stroke="#FFFFFF" stroke-width="8" stroke-miterlimit="10" d="M404.8,171.1c0-85-69.2-154.2-154.2-154.2
		S96.4,86.1,96.4,171.1c0,59.2,58.3,110.7,58.3,110.7c14.5,13.5,29,42.5,29,62.4v99.5c0,20,6.8,34.8,26.7,34.8h79.5
		c20.3,0,28-14.5,28-34.8V342c0-20.3,16.7-49.2,31.2-62.4C349.1,279.6,404.8,228.1,404.8,171.1z"/>
	<line fill="none" stroke="#FFFFFF" stroke-width="8" stroke-miterlimit="10" x1="183.6" y1="410.3" x2="317.5" y2="410.3"/>
	<line fill="none" stroke="#FFFFFF" stroke-width="8" stroke-miterlimit="10" x1="183.6" y1="376.8" x2="317.5" y2="376.8"/>
	<line fill="none" stroke="#FFFFFF" stroke-width="8" stroke-miterlimit="10" x1="183.6" y1="443.8" x2="317.5" y2="443.8"/>
</g>
</svg>
