<?xml version="1.0" encoding="utf-8"?>
<!-- Generator: Adobe Illustrator 18.1.1, SVG Export Plug-In . SVG Version: 6.00 Build 0)  -->
<!DOCTYPE svg PUBLIC "-//W3C//DTD SVG 1.1//EN" "http://www.w3.org/Graphics/SVG/1.1/DTD/svg11.dtd">
<svg version="1.1" id="Layer_1" xmlns="http://www.w3.org/2000/svg" xmlns:xlink="http://www.w3.org/1999/xlink" x="0px" y="0px"
	 viewBox="0 0 756 252" enable-background="new 0 0 756 252" xml:space="preserve">
<rect x="17.4" y="68.9" fill="#D78D2A" stroke="#FFFFFF" stroke-width="5" stroke-miterlimit="10" width="72.1" height="72.1"/>
<rect x="305.6" y="69.2" fill="#6BA1B9" stroke="#FFFFFF" stroke-width="5" stroke-miterlimit="10" width="72.1" height="72.1"/>
<rect x="377.7" y="69.2" fill="#6BA1B9" stroke="#FFFFFF" stroke-width="5" stroke-miterlimit="10" width="72.1" height="72.1"/>
<rect x="665.9" y="69" fill="#D78D2A" stroke="#FFFFFF" stroke-width="5" stroke-miterlimit="10" width="72.1" height="72.1"/>
<g>
	<rect x="89.5" y="69.2" fill="#6BA1B9" stroke="#FFFFFF" stroke-width="5" stroke-miterlimit="10" width="72.1" height="72.1"/>
	<g id="XMLID_1_">
		<g>
			<polygon fill="#98BDCE" points="147.8,79.9 147.8,108.6 103.4,108.6 103.4,79.9 125.6,94.3 			"/>
			<polygon fill="#98BDCE" points="147.8,79.9 125.6,94.3 103.4,79.9 147.2,79.9 			"/>
		</g>
		<g>
			<polyline fill="none" stroke="#FFFFFF" stroke-width="1.354" stroke-miterlimit="10" points="147.8,79.9 147.8,108.6 
				103.4,108.6 103.4,79.9 			"/>
			<line fill="none" stroke="#FFFFFF" stroke-width="1.354" stroke-miterlimit="10" x1="103.4" y1="79.9" x2="125.6" y2="94.3"/>
			<line fill="none" stroke="#FFFFFF" stroke-width="1.354" stroke-miterlimit="10" x1="125.6" y1="94.3" x2="147.8" y2="79.9"/>
			<polyline fill="none" stroke="#FFFFFF" stroke-width="1.354" stroke-miterlimit="10" points="102.7,79.9 103.4,79.9 147.2,79.9 
				147.8,79.9 148.3,79.9 			"/>
		</g>
	</g>
	<text transform="matrix(1 0 0 1 101.9763 123.2402)"><tspan x="0" y="0" fill="#FFFFFF" font-family="'OpenSans-Bold'" font-size="12">ENERGY</tspan><tspan x="-0.1" y="11" fill="#FFFFFF" font-family="'OpenSans-Bold'" font-size="12">UPDATE</tspan></text>
</g>
<g>
	<rect x="161.5" y="69.2" fill="#6BA1B9" stroke="#FFFFFF" stroke-width="5" stroke-miterlimit="10" width="72.1" height="72.1"/>
	<g id="XMLID_2_">
		<g>
			<polygon fill="#98BDCE" points="219.9,79.9 219.9,108.6 175.5,108.6 175.5,79.9 197.7,94.3 			"/>
			<polygon fill="#98BDCE" points="219.9,79.9 197.7,94.3 175.5,79.9 219.2,79.9 			"/>
		</g>
		<g>
			<polyline fill="none" stroke="#FFFFFF" stroke-width="1.354" stroke-miterlimit="10" points="219.9,79.9 219.9,108.6 
				175.5,108.6 175.5,79.9 			"/>
			<line fill="none" stroke="#FFFFFF" stroke-width="1.354" stroke-miterlimit="10" x1="175.5" y1="79.9" x2="197.7" y2="94.3"/>
			<line fill="none" stroke="#FFFFFF" stroke-width="1.354" stroke-miterlimit="10" x1="197.7" y1="94.3" x2="219.9" y2="79.9"/>
			<polyline fill="none" stroke="#FFFFFF" stroke-width="1.354" stroke-miterlimit="10" points="174.8,79.9 175.5,79.9 219.2,79.9 
				219.9,79.9 220.4,79.9 			"/>
		</g>
	</g>
	<text transform="matrix(1 0 0 1 174.0277 123.2402)"><tspan x="0" y="0" fill="#FFFFFF" font-family="'OpenSans-Bold'" font-size="12">ENERGY</tspan><tspan x="-0.1" y="11" fill="#FFFFFF" font-family="'OpenSans-Bold'" font-size="12">UPDATE</tspan></text>
</g>
<g>
	<rect x="305.9" y="69.2" fill="#6BA1B9" stroke="#FFFFFF" stroke-width="5" stroke-miterlimit="10" width="72.1" height="72.1"/>
	<g id="XMLID_4_">
		<g>
			<polygon fill="#98BDCE" points="364.3,79.9 364.3,108.6 319.9,108.6 319.9,79.9 342.1,94.3 			"/>
			<polygon fill="#98BDCE" points="364.3,79.9 342.1,94.3 319.9,79.9 363.6,79.9 			"/>
		</g>
		<g>
			<polyline fill="none" stroke="#FFFFFF" stroke-width="1.354" stroke-miterlimit="10" points="364.3,79.9 364.3,108.6 
				319.9,108.6 319.9,79.9 			"/>
			<line fill="none" stroke="#FFFFFF" stroke-width="1.354" stroke-miterlimit="10" x1="319.9" y1="79.9" x2="342.1" y2="94.3"/>
			<line fill="none" stroke="#FFFFFF" stroke-width="1.354" stroke-miterlimit="10" x1="342.1" y1="94.3" x2="364.3" y2="79.9"/>
			<polyline fill="none" stroke="#FFFFFF" stroke-width="1.354" stroke-miterlimit="10" points="319.2,79.9 319.9,79.9 363.6,79.9 
				364.3,79.9 364.8,79.9 			"/>
		</g>
	</g>
	<text transform="matrix(1 0 0 1 318.4463 123.2402)"><tspan x="0" y="0" fill="#FFFFFF" font-family="'OpenSans-Bold'" font-size="12">ENERGY</tspan><tspan x="-0.1" y="11" fill="#FFFFFF" font-family="'OpenSans-Bold'" font-size="12">UPDATE</tspan></text>
</g>
<g>
	<rect x="378" y="69.2" fill="#6BA1B9" stroke="#FFFFFF" stroke-width="5" stroke-miterlimit="10" width="72.1" height="72.1"/>
	<g id="XMLID_3_">
		<g>
			<polygon fill="#98BDCE" points="436.4,79.9 436.4,108.6 391.9,108.6 391.9,79.9 414.1,94.3 			"/>
			<polygon fill="#98BDCE" points="436.4,79.9 414.1,94.3 391.9,79.9 435.7,79.9 			"/>
		</g>
		<g>
			<polyline fill="none" stroke="#FFFFFF" stroke-width="1.354" stroke-miterlimit="10" points="436.4,79.9 436.4,108.6 
				391.9,108.6 391.9,79.9 			"/>
			<line fill="none" stroke="#FFFFFF" stroke-width="1.354" stroke-miterlimit="10" x1="391.9" y1="79.9" x2="414.1" y2="94.3"/>
			<line fill="none" stroke="#FFFFFF" stroke-width="1.354" stroke-miterlimit="10" x1="414.1" y1="94.3" x2="436.4" y2="79.9"/>
			<polyline fill="none" stroke="#FFFFFF" stroke-width="1.354" stroke-miterlimit="10" points="391.2,79.9 391.9,79.9 435.7,79.9 
				436.4,79.9 436.8,79.9 			"/>
		</g>
	</g>
	<text transform="matrix(1 0 0 1 390.4977 123.2402)"><tspan x="0" y="0" fill="#FFFFFF" font-family="'OpenSans-Bold'" font-size="12">ENERGY</tspan><tspan x="-0.1" y="11" fill="#FFFFFF" font-family="'OpenSans-Bold'" font-size="12">UPDATE</tspan></text>
</g>
<g>
	<rect x="521.8" y="69.2" fill="#6BA1B9" stroke="#FFFFFF" stroke-width="5" stroke-miterlimit="10" width="72.1" height="72.1"/>
	<g id="XMLID_6_">
		<g>
			<polygon fill="#98BDCE" points="580.1,79.9 580.1,108.6 535.7,108.6 535.7,79.9 557.9,94.3 			"/>
			<polygon fill="#98BDCE" points="580.1,79.9 557.9,94.3 535.7,79.9 579.5,79.9 			"/>
		</g>
		<g>
			<polyline fill="none" stroke="#FFFFFF" stroke-width="1.354" stroke-miterlimit="10" points="580.1,79.9 580.1,108.6 
				535.7,108.6 535.7,79.9 			"/>
			<line fill="none" stroke="#FFFFFF" stroke-width="1.354" stroke-miterlimit="10" x1="535.7" y1="79.9" x2="557.9" y2="94.3"/>
			<line fill="none" stroke="#FFFFFF" stroke-width="1.354" stroke-miterlimit="10" x1="557.9" y1="94.3" x2="580.1" y2="79.9"/>
			<polyline fill="none" stroke="#FFFFFF" stroke-width="1.354" stroke-miterlimit="10" points="535,79.9 535.7,79.9 579.5,79.9 
				580.1,79.9 580.6,79.9 			"/>
		</g>
	</g>
	<text transform="matrix(1 0 0 1 534.2839 123.2402)"><tspan x="0" y="0" fill="#FFFFFF" font-family="'OpenSans-Bold'" font-size="12">ENERGY</tspan><tspan x="-0.1" y="11" fill="#FFFFFF" font-family="'OpenSans-Bold'" font-size="12">UPDATE</tspan></text>
</g>
<g>
	<rect x="593.8" y="69.2" fill="#6BA1B9" stroke="#FFFFFF" stroke-width="5" stroke-miterlimit="10" width="72.1" height="72.1"/>
	<g id="XMLID_5_">
		<g>
			<polygon fill="#98BDCE" points="652.2,79.9 652.2,108.6 607.8,108.6 607.8,79.9 630,94.3 			"/>
			<polygon fill="#98BDCE" points="652.2,79.9 630,94.3 607.8,79.9 651.5,79.9 			"/>
		</g>
		<g>
			<polyline fill="none" stroke="#FFFFFF" stroke-width="1.354" stroke-miterlimit="10" points="652.2,79.9 652.2,108.6 
				607.8,108.6 607.8,79.9 			"/>
			<line fill="none" stroke="#FFFFFF" stroke-width="1.354" stroke-miterlimit="10" x1="607.8" y1="79.9" x2="630" y2="94.3"/>
			<line fill="none" stroke="#FFFFFF" stroke-width="1.354" stroke-miterlimit="10" x1="630" y1="94.3" x2="652.2" y2="79.9"/>
			<polyline fill="none" stroke="#FFFFFF" stroke-width="1.354" stroke-miterlimit="10" points="607.1,79.9 607.8,79.9 651.5,79.9 
				652.2,79.9 652.7,79.9 			"/>
		</g>
	</g>
	<text transform="matrix(1 0 0 1 606.3353 123.2402)"><tspan x="0" y="0" fill="#FFFFFF" font-family="'OpenSans-Bold'" font-size="12">ENERGY</tspan><tspan x="-0.1" y="11" fill="#FFFFFF" font-family="'OpenSans-Bold'" font-size="12">UPDATE</tspan></text>
</g>
<g>
	<rect x="233.6" y="141.3" fill="#D78D2A" stroke="#FFFFFF" stroke-width="5" stroke-miterlimit="10" width="72.1" height="72.1"/>
	<rect x="255.9" y="148.9" opacity="0.2" fill="#FFFFFF" width="27.4" height="31.6"/>
	<text transform="matrix(1 0 0 1 244.2047 196.7402)"><tspan x="0" y="0" fill="#FFFFFF" font-family="'OpenSans-Bold'" font-size="12">FILL OUT</tspan><tspan x="3.6" y="11" fill="#FFFFFF" font-family="'OpenSans-Bold'" font-size="12">SURVEY</tspan></text>
	<g>
		
			<rect x="255.9" y="148.9" fill="none" stroke="#FFFFFF" stroke-width="0.909" stroke-miterlimit="10" width="27.4" height="31.6"/>
		<rect x="259.6" y="155.9" fill="none" stroke="#FFFFFF" stroke-miterlimit="10" width="4.2" height="4.2"/>
		<rect x="259.6" y="162.7" fill="none" stroke="#FFFFFF" stroke-miterlimit="10" width="4.2" height="4.2"/>
		<rect x="259.6" y="168.9" fill="none" stroke="#FFFFFF" stroke-miterlimit="10" width="4.2" height="4.2"/>
		<line fill="none" stroke="#FFFFFF" stroke-miterlimit="10" x1="259.6" y1="157.5" x2="262" y2="159.8"/>
		<line fill="none" stroke="#FFFFFF" stroke-miterlimit="10" x1="262" y1="159.8" x2="266.7" y2="155.1"/>
		<line fill="none" stroke="#FFFFFF" stroke-miterlimit="10" x1="259.6" y1="164.5" x2="261.8" y2="166.7"/>
		<line fill="none" stroke="#FFFFFF" stroke-miterlimit="10" x1="261.8" y1="166.7" x2="266.8" y2="161.8"/>
		<line fill="none" stroke="#FFFFFF" stroke-miterlimit="10" x1="259.6" y1="170.8" x2="261.8" y2="173.1"/>
		<line fill="none" stroke="#FFFFFF" stroke-miterlimit="10" x1="261.8" y1="173.1" x2="266.9" y2="168.1"/>
	</g>
</g>
<g>
	<rect x="449.7" y="141.2" fill="#D78D2A" stroke="#FFFFFF" stroke-width="5" stroke-miterlimit="10" width="72.1" height="72.1"/>
	<rect x="472.1" y="148.8" opacity="0.2" fill="#FFFFFF" width="27.4" height="31.6"/>
	<text transform="matrix(1 0 0 1 460.3584 196.6148)"><tspan x="0" y="0" fill="#FFFFFF" font-family="'OpenSans-Bold'" font-size="12">FILL OUT</tspan><tspan x="3.6" y="11" fill="#FFFFFF" font-family="'OpenSans-Bold'" font-size="12">SURVEY</tspan></text>
	<g>
		
			<rect x="472.1" y="148.8" fill="none" stroke="#FFFFFF" stroke-width="0.909" stroke-miterlimit="10" width="27.4" height="31.6"/>
		<rect x="475.8" y="155.8" fill="none" stroke="#FFFFFF" stroke-miterlimit="10" width="4.2" height="4.2"/>
		<rect x="475.8" y="162.6" fill="none" stroke="#FFFFFF" stroke-miterlimit="10" width="4.2" height="4.2"/>
		<rect x="475.8" y="168.7" fill="none" stroke="#FFFFFF" stroke-miterlimit="10" width="4.2" height="4.2"/>
		<line fill="none" stroke="#FFFFFF" stroke-miterlimit="10" x1="475.8" y1="157.4" x2="478.1" y2="159.7"/>
		<line fill="none" stroke="#FFFFFF" stroke-miterlimit="10" x1="478.1" y1="159.7" x2="482.9" y2="155"/>
		<line fill="none" stroke="#FFFFFF" stroke-miterlimit="10" x1="475.8" y1="164.4" x2="478" y2="166.6"/>
		<line fill="none" stroke="#FFFFFF" stroke-miterlimit="10" x1="478" y1="166.6" x2="482.9" y2="161.7"/>
		<line fill="none" stroke="#FFFFFF" stroke-miterlimit="10" x1="475.8" y1="170.7" x2="478" y2="173"/>
		<line fill="none" stroke="#FFFFFF" stroke-miterlimit="10" x1="478" y1="173" x2="483" y2="167.9"/>
	</g>
</g>
<g>
	<rect x="233.6" y="69.1" fill="#D78D2A" stroke="#FFFFFF" stroke-width="5" stroke-miterlimit="10" width="72.1" height="72.1"/>
	<g>
		<g opacity="0.2">
			<circle fill="#FFFFFF" cx="252.9" cy="84.5" r="5.8"/>
			<path fill="#FFFFFF" d="M253.2,109L253.2,109c-6.1,0-6.1,0-6.1-6.1v-6.5c0-5.8,0-6.1,6.1-6.1h0c6.1,0,6.1,0,6.1,6.1v6.5
				C259.3,109,259.3,109,253.2,109z"/>
			<circle fill="#FFFFFF" cx="269" cy="84.5" r="5.8"/>
			<path fill="#FFFFFF" d="M269.3,109L269.3,109c-6.1,0-6.1,0-6.1-6.1v-6.5c0-5.8,0-6.1,6.1-6.1h0c6.1,0,6.1,0,6.1,6.1v6.5
				C275.4,109,275.4,109,269.3,109z"/>
			<circle fill="#FFFFFF" cx="285.2" cy="84.5" r="5.8"/>
			<path fill="#FFFFFF" d="M285.4,109L285.4,109c-6.1,0-6.1,0-6.1-6.1v-6.5c0-5.8,0-6.1,6.1-6.1h0c6.1,0,6.1,0,6.1,6.1v6.5
				C291.5,109,291.5,109,285.4,109z"/>
		</g>
		<g>
			<circle fill="none" stroke="#FFFFFF" stroke-width="1.1882" stroke-miterlimit="10" cx="252.9" cy="84.5" r="5.8"/>
			<path fill="none" stroke="#FFFFFF" stroke-width="1.1882" stroke-miterlimit="10" d="M253.2,109L253.2,109c-6.1,0-6.1,0-6.1-6.1
				v-6.5c0-5.8,0-6.1,6.1-6.1h0c6.1,0,6.1,0,6.1,6.1v6.5C259.3,109,259.3,109,253.2,109z"/>
			<circle fill="none" stroke="#FFFFFF" stroke-width="1.1882" stroke-miterlimit="10" cx="269" cy="84.5" r="5.8"/>
			<path fill="none" stroke="#FFFFFF" stroke-width="1.1882" stroke-miterlimit="10" d="M269.3,109L269.3,109c-6.1,0-6.1,0-6.1-6.1
				v-6.5c0-5.8,0-6.1,6.1-6.1h0c6.1,0,6.1,0,6.1,6.1v6.5C275.4,109,275.4,109,269.3,109z"/>
			<circle fill="none" stroke="#FFFFFF" stroke-width="1.1882" stroke-miterlimit="10" cx="285.2" cy="84.5" r="5.8"/>
			<path fill="none" stroke="#FFFFFF" stroke-width="1.1882" stroke-miterlimit="10" d="M285.4,109L285.4,109c-6.1,0-6.1,0-6.1-6.1
				v-6.5c0-5.8,0-6.1,6.1-6.1h0c6.1,0,6.1,0,6.1,6.1v6.5C291.5,109,291.5,109,285.4,109z"/>
		</g>
	</g>
	<text transform="matrix(1 0 0 1 248.295 121.2407)"><tspan x="0" y="0" fill="#FFFFFF" font-family="'OpenSans-Bold'" font-size="11">ATTEND</tspan><tspan x="-10.3" y="11" fill="#FFFFFF" font-family="'OpenSans-Bold'" font-size="11">WORKSHOP</tspan></text>
</g>
<g>
	<rect x="17.4" y="141.2" fill="#D78D2A" stroke="#FFFFFF" stroke-width="5" stroke-miterlimit="10" width="72.1" height="72.1"/>
	<rect x="39.8" y="148.9" opacity="0.2" fill="#FFFFFF" width="27.4" height="31.6"/>
	<text transform="matrix(1 0 0 1 28.0507 196.6826)"><tspan x="0" y="0" fill="#FFFFFF" font-family="'OpenSans-Bold'" font-size="12">FILL OUT</tspan><tspan x="3.6" y="11" fill="#FFFFFF" font-family="'OpenSans-Bold'" font-size="12">SURVEY</tspan></text>
	<g>
		<rect x="39.8" y="148.8" fill="none" stroke="#FFFFFF" stroke-width="0.909" stroke-miterlimit="10" width="27.4" height="31.6"/>
		<rect x="43.4" y="155.8" fill="none" stroke="#FFFFFF" stroke-miterlimit="10" width="4.2" height="4.2"/>
		<rect x="43.4" y="162.6" fill="none" stroke="#FFFFFF" stroke-miterlimit="10" width="4.2" height="4.2"/>
		<rect x="43.4" y="168.8" fill="none" stroke="#FFFFFF" stroke-miterlimit="10" width="4.2" height="4.2"/>
		<line fill="none" stroke="#FFFFFF" stroke-miterlimit="10" x1="43.4" y1="157.4" x2="45.8" y2="159.8"/>
		<line fill="none" stroke="#FFFFFF" stroke-miterlimit="10" x1="45.8" y1="159.8" x2="50.5" y2="155"/>
		<line fill="none" stroke="#FFFFFF" stroke-miterlimit="10" x1="43.4" y1="164.4" x2="45.7" y2="166.7"/>
		<line fill="none" stroke="#FFFFFF" stroke-miterlimit="10" x1="45.7" y1="166.7" x2="50.6" y2="161.7"/>
		<line fill="none" stroke="#FFFFFF" stroke-miterlimit="10" x1="43.4" y1="170.8" x2="45.7" y2="173"/>
		<line fill="none" stroke="#FFFFFF" stroke-miterlimit="10" x1="45.7" y1="173" x2="50.7" y2="168"/>
	</g>
</g>
<g>
	<rect x="17.4" y="69.1" fill="#D78D2A" stroke="#FFFFFF" stroke-width="5" stroke-miterlimit="10" width="72.1" height="72.1"/>
	<g>
		<g opacity="0.2">
			<circle fill="#FFFFFF" cx="36.8" cy="84.5" r="5.8"/>
			<path fill="#FFFFFF" d="M37.1,108.9L37.1,108.9c-6.1,0-6.1,0-6.1-6.1v-6.5c0-5.8,0-6.1,6.1-6.1h0c6.1,0,6.1,0,6.1,6.1v6.5
				C43.2,108.9,43.2,108.9,37.1,108.9z"/>
			<circle fill="#FFFFFF" cx="52.9" cy="84.5" r="5.8"/>
			<path fill="#FFFFFF" d="M53.2,108.9L53.2,108.9c-6.1,0-6.1,0-6.1-6.1v-6.5c0-5.8,0-6.1,6.1-6.1h0c6.1,0,6.1,0,6.1,6.1v6.5
				C59.3,108.9,59.3,108.9,53.2,108.9z"/>
			<circle fill="#FFFFFF" cx="69" cy="84.5" r="5.8"/>
			<path fill="#FFFFFF" d="M69.3,108.9L69.3,108.9c-6.1,0-6.1,0-6.1-6.1v-6.5c0-5.8,0-6.1,6.1-6.1h0c6.1,0,6.1,0,6.1,6.1v6.5
				C75.4,108.9,75.4,108.9,69.3,108.9z"/>
		</g>
		<g>
			<circle fill="none" stroke="#FFFFFF" stroke-width="1.1882" stroke-miterlimit="10" cx="36.8" cy="84.5" r="5.8"/>
			<path fill="none" stroke="#FFFFFF" stroke-width="1.1882" stroke-miterlimit="10" d="M37.1,108.9L37.1,108.9
				c-6.1,0-6.1,0-6.1-6.1v-6.5c0-5.8,0-6.1,6.1-6.1h0c6.1,0,6.1,0,6.1,6.1v6.5C43.2,108.9,43.2,108.9,37.1,108.9z"/>
			<circle fill="none" stroke="#FFFFFF" stroke-width="1.1882" stroke-miterlimit="10" cx="52.9" cy="84.5" r="5.8"/>
			<path fill="none" stroke="#FFFFFF" stroke-width="1.1882" stroke-miterlimit="10" d="M53.2,108.9L53.2,108.9
				c-6.1,0-6.1,0-6.1-6.1v-6.5c0-5.8,0-6.1,6.1-6.1h0c6.1,0,6.1,0,6.1,6.1v6.5C59.3,108.9,59.3,108.9,53.2,108.9z"/>
			<circle fill="none" stroke="#FFFFFF" stroke-width="1.1882" stroke-miterlimit="10" cx="69" cy="84.5" r="5.8"/>
			<path fill="none" stroke="#FFFFFF" stroke-width="1.1882" stroke-miterlimit="10" d="M69.3,108.9L69.3,108.9
				c-6.1,0-6.1,0-6.1-6.1v-6.5c0-5.8,0-6.1,6.1-6.1h0c6.1,0,6.1,0,6.1,6.1v6.5C75.4,108.9,75.4,108.9,69.3,108.9z"/>
		</g>
	</g>
	<text transform="matrix(1 0 0 1 32.1411 121.183)"><tspan x="0" y="0" fill="#FFFFFF" font-family="'OpenSans-Bold'" font-size="11">ATTEND</tspan><tspan x="-10.3" y="11" fill="#FFFFFF" font-family="'OpenSans-Bold'" font-size="11">WORKSHOP</tspan></text>
</g>
<g>
	<rect x="449.7" y="69" fill="#D78D2A" stroke="#FFFFFF" stroke-width="5" stroke-miterlimit="10" width="72.1" height="72.1"/>
	<g>
		<g opacity="0.2">
			<circle fill="#FFFFFF" cx="469.1" cy="84.5" r="5.8"/>
			<path fill="#FFFFFF" d="M469.4,108.9L469.4,108.9c-6.1,0-6.1,0-6.1-6.1v-6.5c0-5.8,0-6.1,6.1-6.1h0c6.1,0,6.1,0,6.1,6.1v6.5
				C475.5,108.9,475.5,108.9,469.4,108.9z"/>
			<circle fill="#FFFFFF" cx="485.2" cy="84.5" r="5.8"/>
			<path fill="#FFFFFF" d="M485.5,108.9L485.5,108.9c-6.1,0-6.1,0-6.1-6.1v-6.5c0-5.8,0-6.1,6.1-6.1h0c6.1,0,6.1,0,6.1,6.1v6.5
				C491.6,108.9,491.6,108.9,485.5,108.9z"/>
			<circle fill="#FFFFFF" cx="501.3" cy="84.5" r="5.8"/>
			<path fill="#FFFFFF" d="M501.6,108.9L501.6,108.9c-6.1,0-6.1,0-6.1-6.1v-6.5c0-5.8,0-6.1,6.1-6.1h0c6.1,0,6.1,0,6.1,6.1v6.5
				C507.7,108.9,507.7,108.9,501.6,108.9z"/>
		</g>
		<g>
			<circle fill="none" stroke="#FFFFFF" stroke-width="1.1882" stroke-miterlimit="10" cx="469.1" cy="84.5" r="5.8"/>
			<path fill="none" stroke="#FFFFFF" stroke-width="1.1882" stroke-miterlimit="10" d="M469.4,108.9L469.4,108.9
				c-6.1,0-6.1,0-6.1-6.1v-6.5c0-5.8,0-6.1,6.1-6.1h0c6.1,0,6.1,0,6.1,6.1v6.5C475.5,108.9,475.5,108.9,469.4,108.9z"/>
			<circle fill="none" stroke="#FFFFFF" stroke-width="1.1882" stroke-miterlimit="10" cx="485.2" cy="84.5" r="5.8"/>
			<path fill="none" stroke="#FFFFFF" stroke-width="1.1882" stroke-miterlimit="10" d="M485.5,108.9L485.5,108.9
				c-6.1,0-6.1,0-6.1-6.1v-6.5c0-5.8,0-6.1,6.1-6.1h0c6.1,0,6.1,0,6.1,6.1v6.5C491.6,108.9,491.6,108.9,485.5,108.9z"/>
			<circle fill="none" stroke="#FFFFFF" stroke-width="1.1882" stroke-miterlimit="10" cx="501.3" cy="84.5" r="5.8"/>
			<path fill="none" stroke="#FFFFFF" stroke-width="1.1882" stroke-miterlimit="10" d="M501.6,108.9L501.6,108.9
				c-6.1,0-6.1,0-6.1-6.1v-6.5c0-5.8,0-6.1,6.1-6.1h0c6.1,0,6.1,0,6.1,6.1v6.5C507.7,108.9,507.7,108.9,501.6,108.9z"/>
		</g>
	</g>
	<text transform="matrix(1 0 0 1 464.4493 121.1733)"><tspan x="0" y="0" fill="#FFFFFF" font-family="'OpenSans-Bold'" font-size="11">ATTEND</tspan><tspan x="-10.3" y="11" fill="#FFFFFF" font-family="'OpenSans-Bold'" font-size="11">WORKSHOP</tspan></text>
</g>
<g>
	<rect x="665.9" y="141.2" fill="#D78D2A" stroke="#FFFFFF" stroke-width="5" stroke-miterlimit="10" width="72.1" height="72.1"/>
	<rect x="688.2" y="148.8" opacity="0.2" fill="#FFFFFF" width="27.4" height="31.6"/>
	<text transform="matrix(1 0 0 1 676.512 196.6536)"><tspan x="0" y="0" fill="#FFFFFF" font-family="'OpenSans-Bold'" font-size="12">FILL OUT</tspan><tspan x="3.6" y="11" fill="#FFFFFF" font-family="'OpenSans-Bold'" font-size="12">SURVEY</tspan></text>
	<g>
		
			<rect x="688.2" y="148.8" fill="none" stroke="#FFFFFF" stroke-width="0.909" stroke-miterlimit="10" width="27.4" height="31.6"/>
		<rect x="691.9" y="155.8" fill="none" stroke="#FFFFFF" stroke-miterlimit="10" width="4.2" height="4.2"/>
		<rect x="691.9" y="162.6" fill="none" stroke="#FFFFFF" stroke-miterlimit="10" width="4.2" height="4.2"/>
		<rect x="691.9" y="168.8" fill="none" stroke="#FFFFFF" stroke-miterlimit="10" width="4.2" height="4.2"/>
		<line fill="none" stroke="#FFFFFF" stroke-miterlimit="10" x1="691.9" y1="157.4" x2="694.3" y2="159.8"/>
		<line fill="none" stroke="#FFFFFF" stroke-miterlimit="10" x1="694.3" y1="159.8" x2="699" y2="155"/>
		<line fill="none" stroke="#FFFFFF" stroke-miterlimit="10" x1="691.9" y1="164.4" x2="694.1" y2="166.6"/>
		<line fill="none" stroke="#FFFFFF" stroke-miterlimit="10" x1="694.1" y1="166.6" x2="699.1" y2="161.7"/>
		<line fill="none" stroke="#FFFFFF" stroke-miterlimit="10" x1="691.9" y1="170.8" x2="694.1" y2="173"/>
		<line fill="none" stroke="#FFFFFF" stroke-miterlimit="10" x1="694.1" y1="173" x2="699.2" y2="168"/>
	</g>
</g>
<g>
	<rect x="665.9" y="69.1" fill="#D78D2A" stroke="#FFFFFF" stroke-width="5" stroke-miterlimit="10" width="72.1" height="72.1"/>
	<g>
		<g opacity="0.2">
			<circle fill="#FFFFFF" cx="685.3" cy="84.5" r="5.8"/>
			<path fill="#FFFFFF" d="M685.5,109L685.5,109c-6.1,0-6.1,0-6.1-6.1v-6.5c0-5.8,0-6.1,6.1-6.1l0,0c6.1,0,6.1,0,6.1,6.1v6.5
				C691.6,109,691.6,109,685.5,109z"/>
			<circle fill="#FFFFFF" cx="701.3" cy="84.5" r="5.8"/>
			<path fill="#FFFFFF" d="M701.6,109L701.6,109c-6.1,0-6.1,0-6.1-6.1v-6.5c0-5.8,0-6.1,6.1-6.1l0,0c6.1,0,6.1,0,6.1,6.1v6.5
				C707.7,109,707.7,109,701.6,109z"/>
			<circle fill="#FFFFFF" cx="717.5" cy="84.5" r="5.8"/>
			<path fill="#FFFFFF" d="M717.8,109L717.8,109c-6.1,0-6.1,0-6.1-6.1v-6.5c0-5.8,0-6.1,6.1-6.1l0,0c6.1,0,6.1,0,6.1,6.1v6.5
				C723.8,109,723.8,109,717.8,109z"/>
		</g>
		<g>
			<circle fill="none" stroke="#FFFFFF" stroke-width="1.1882" stroke-miterlimit="10" cx="685.3" cy="84.5" r="5.8"/>
			<path fill="none" stroke="#FFFFFF" stroke-width="1.1882" stroke-miterlimit="10" d="M685.5,109L685.5,109c-6.1,0-6.1,0-6.1-6.1
				v-6.5c0-5.8,0-6.1,6.1-6.1l0,0c6.1,0,6.1,0,6.1,6.1v6.5C691.6,109,691.6,109,685.5,109z"/>
			<circle fill="none" stroke="#FFFFFF" stroke-width="1.1882" stroke-miterlimit="10" cx="701.3" cy="84.5" r="5.8"/>
			<path fill="none" stroke="#FFFFFF" stroke-width="1.1882" stroke-miterlimit="10" d="M701.6,109L701.6,109c-6.1,0-6.1,0-6.1-6.1
				v-6.5c0-5.8,0-6.1,6.1-6.1l0,0c6.1,0,6.1,0,6.1,6.1v6.5C707.7,109,707.7,109,701.6,109z"/>
			<circle fill="none" stroke="#FFFFFF" stroke-width="1.1882" stroke-miterlimit="10" cx="717.5" cy="84.5" r="5.8"/>
			<path fill="none" stroke="#FFFFFF" stroke-width="1.1882" stroke-miterlimit="10" d="M717.8,109L717.8,109c-6.1,0-6.1,0-6.1-6.1
				v-6.5c0-5.8,0-6.1,6.1-6.1l0,0c6.1,0,6.1,0,6.1,6.1v6.5C723.8,109,723.8,109,717.8,109z"/>
		</g>
	</g>
	<text transform="matrix(1 0 0 1 680.603 121.212)"><tspan x="0" y="0" fill="#FFFFFF" font-family="'OpenSans-Bold'" font-size="11">ATTEND</tspan><tspan x="-10.3" y="11" fill="#FFFFFF" font-family="'OpenSans-Bold'" font-size="11">WORKSHOP</tspan></text>
</g>
<text transform="matrix(1 0 0 1 113.4236 56.9169)"><tspan x="0" y="0" fill="#6A646A" font-family="'OpenSans-Bold'" font-size="12">MID</tspan><tspan x="-1.5" y="11" fill="#6A646A" font-family="'OpenSans-Bold'" font-size="12">MAY</tspan></text>
<text transform="matrix(1 0 0 1 32.8776 62.9163)" fill="#6A646A" font-family="'OpenSans-Bold'" font-size="12">TODAY</text>
<text transform="matrix(1 0 0 1 183.1914 56.9171)"><tspan x="0" y="0" fill="#6A646A" font-family="'OpenSans-Bold'" font-size="12">LATE</tspan><tspan x="0.8" y="11" fill="#6A646A" font-family="'OpenSans-Bold'" font-size="12">MAY</tspan></text>
<text transform="matrix(1 0 0 1 251.0122 56.9169)"><tspan x="0" y="0" fill="#6A646A" font-family="'OpenSans-Bold'" font-size="12">EARLY</tspan><tspan x="3.8" y="11" fill="#6A646A" font-family="'OpenSans-Bold'" font-size="12">JUNE</tspan></text>
<text transform="matrix(1 0 0 1 399.3451 56.9167)"><tspan x="0" y="0" fill="#6A646A" font-family="'OpenSans-Bold'" font-size="12">LATE</tspan><tspan x="-0.4" y="11" fill="#6A646A" font-family="'OpenSans-Bold'" font-size="12">JUNE</tspan></text>
<text transform="matrix(1 0 0 1 329.5731 56.9167)"><tspan x="0" y="0" fill="#6A646A" font-family="'OpenSans-Bold'" font-size="12">MID</tspan><tspan x="-2.7" y="11" fill="#6A646A" font-family="'OpenSans-Bold'" font-size="12">JUNE</tspan></text>
<text transform="matrix(1 0 0 1 467.1662 56.9172)"><tspan x="0" y="0" fill="#6A646A" font-family="'OpenSans-Bold'" font-size="12">EARLY</tspan><tspan x="4.9" y="11" fill="#6A646A" font-family="'OpenSans-Bold'" font-size="12">JULY</tspan></text>
<text transform="matrix(1 0 0 1 683.3199 56.9164)"><tspan x="0" y="0" fill="#6A646A" font-family="'OpenSans-Bold'" font-size="12">EARLY</tspan><tspan x="-5.7" y="11" fill="#6A646A" font-family="'OpenSans-Bold'" font-size="12">AUGUST</tspan></text>
<text transform="matrix(1 0 0 1 615.4991 56.917)"><tspan x="0" y="0" fill="#6A646A" font-family="'OpenSans-Bold'" font-size="12">LATE</tspan><tspan x="0.7" y="11" fill="#6A646A" font-family="'OpenSans-Bold'" font-size="12">JULY</tspan></text>
<text transform="matrix(1 0 0 1 545.7271 56.9171)"><tspan x="0" y="0" fill="#6A646A" font-family="'OpenSans-Bold'" font-size="12">MID</tspan><tspan x="-1.6" y="11" fill="#6A646A" font-family="'OpenSans-Bold'" font-size="12">JULY</tspan></text>
</svg>
