<?xml version="1.0" encoding="utf-8" standalone="no"?>
<!-- Generator: Adobe Illustrator 17.1.0, SVG Export Plug-In . SVG Version: 6.00 Build 0)  -->
<!DOCTYPE svg PUBLIC "-//W3C//DTD SVG 1.1//EN" "http://www.w3.org/Graphics/SVG/1.1/DTD/svg11.dtd">
<svg version="1.1" xmlns="http://www.w3.org/2000/svg" xmlns:xlink="http://www.w3.org/1999/xlink" x="0px" y="0px"
	 viewBox="0 0 800 500" enable-background="new 0 0 800 500" xml:space="preserve">
<style type="text/css" >
    <![CDATA[
		@font-face { font-family: 'Avenir'; src: url('../style/AvenirNextLTPro-Regular.otf'); } 
		@font-face { font-family: AvenirDemi; src: url('../style/AvenirNextLTPro-Demi.otf'); } 
		@font-face { font-family: AvenirMedium; src: url('../style/AvenirNextLTPro-Medium.otf'); } 

		text {
		font-family: 'Open Sans', sans-serif;
		}
	]]>
</style>
<g id="Layer_1">
	<text transform="matrix(1 0 0 1 16.416 19.032)" font-size="25.3609">Program Match</text>
	<rect x="16.4" y="30.2" fill="none" width="767.2" height="49.1"/>
	<text transform="matrix(1 0 0 1 16.416 44.5305)"><tspan x="0" y="0" font-size="19.0207">We have used the personal energy information you provided at the beginning of the </tspan><tspan x="0" y="22.8" font-size="19.0207">Pilot to identify utility programs that might help you reduce your energy spending.</tspan></text>
	<rect x="159.1" y="91.3" fill="none" width="624.5" height="133.1"/>
	<text transform="matrix(1 0 0 1 159.0713 105.6829)"><tspan x="0" y="0" font-size="19.0207" font-weight="700">ComEd Lighting Discount</tspan><tspan x="0" y="22.8" font-size="19.0207">You indicated that you have 3 incandescent and 15 CFL light bulbs in </tspan><tspan x="0" y="45.6" font-size="19.0207">your home. By replacing your less efficient bulbs with LEDs we estimate </tspan><tspan x="0" y="68.5" font-size="19.0207">you could save up to $3.81 per month. ComEd offers more efficient </tspan><tspan x="0" y="91.3" font-size="19.0207">bulbs at a discount at participating retailers. Interested? Learn more at </tspan><tspan x="0" y="114.1" font-size="19.0207">www.comed.com/home-savings/discounts/Pages/default.aspx</tspan></text>
	<rect x="159.1" y="241.1" fill="none" width="624.5" height="133.1"/>
	<text transform="matrix(1 0 0 1 159.0713 255.4632)"><tspan x="0" y="0" font-size="19.0207" font-weight="700">ComEd Central AC Cycling</tspan><tspan x="0" y="22.8" font-size="19.0207">You indicated that you have central air conditioning in your home. Earn </tspan><tspan x="0" y="45.6" font-size="19.0207">up to $10 in bill credits by signing up for Central AC Cycling. Interested</tspan><tspan x="594.9" y="45.6" font-size="19.0207">-</tspan><tspan x="0" y="68.5" font-size="19.0207">Learn more at www. comed.com/home-savings/energymanage</tspan><tspan x="584.9" y="68.5" font-size="19.0207">-</tspan><tspan x="0" y="91.3" font-size="19.0207">ment/Pages/central-ac-cycling.aspx</tspan></text>
	<rect x="159.1" y="367.9" fill="none" width="624.5" height="133.1"/>
	<text transform="matrix(1 0 0 1 159.0713 382.2683)"><tspan x="0" y="0" font-size="19.0207" font-weight="700">ComEd Refrigerator and Freezer Recycling</tspan><tspan x="0" y="22.8" font-size="19.0207">You indicated that you have an inefficient refrigerator. You can save up </tspan><tspan x="0" y="45.6" font-size="19.0207">to $11.57 per month by replacing it with a more efficient model and </tspan><tspan x="0" y="68.5" font-size="19.0207">earn a one-time $50 rebate for recycling your refrigerator. Interested? </tspan><tspan x="0" y="91.3" font-size="19.0207">Learn more at www. comed.com/home-savings/recycling/Pages/de</tspan><tspan x="584.3" y="91.3" font-size="19.0207">-</tspan><tspan x="0" y="114.1" font-size="19.0207">fault.aspx</tspan></text>
</g>
<g id="website">
	<g>
		<path fill="none" stroke="#D88E2A" stroke-width="2" stroke-miterlimit="10" d="M144.9,123.3c0-20.3-16.5-36.7-36.7-36.7
			s-36.7,16.5-36.7,36.7c0,14.1,13.9,26.4,13.9,26.4c3.5,3.2,6.9,10.1,6.9,14.9v23.7c0,4.7,1.6,8.3,6.4,8.3h18.9
			c4.8,0,6.6-3.5,6.6-8.3V164c0-4.8,4-11.7,7.4-14.9C131.6,149.2,144.9,136.9,144.9,123.3z"/>
		<line fill="none" stroke="#D88E2A" stroke-width="2" stroke-miterlimit="10" x1="92.2" y1="180.3" x2="124.1" y2="180.3"/>
		<line fill="none" stroke="#D88E2A" stroke-width="2" stroke-miterlimit="10" x1="92.2" y1="172.3" x2="124.1" y2="172.3"/>
		<line fill="none" stroke="#D88E2A" stroke-width="2" stroke-miterlimit="10" x1="92.2" y1="188.3" x2="124.1" y2="188.3"/>
	</g>
	<g>
		<g>
			<path fill="none" stroke="#6CA1B9" stroke-width="2" stroke-miterlimit="10" d="M143.8,321c0,1.6-1.3,2.9-2.9,2.9H28.2
				c-1.6,0-2.9-1.3-2.9-2.9v-69.4c0-1.6,1.3-2.9,2.9-2.9H141c1.6,0,2.9,1.3,2.9,2.9L143.8,321L143.8,321z"/>
		</g>
		<path fill="#6CA1B9" d="M125,253.1c1.8,0,3.4,1.3,3.4,3c0,1.6-1.5,3-3.4,3c-1.9,0-3.4-1.3-3.4-3
			C121.7,254.5,123.2,253.1,125,253.1z"/>
		<path fill="#6CA1B9" d="M113.1,253.1c1.8,0,3.3,1.3,3.3,3c0,1.6-1.5,3-3.3,3c-1.8,0-3.4-1.3-3.4-3
			C109.7,254.5,111.2,253.1,113.1,253.1z"/>
		<line fill="none" stroke="#6CA1B9" stroke-width="2" stroke-miterlimit="10" x1="63" y1="248.7" x2="63" y2="264.3"/>
		<line fill="none" stroke="#6CA1B9" stroke-width="2" stroke-miterlimit="10" x1="25.7" y1="264.3" x2="143.2" y2="264.3"/>
		<g>
			<line fill="none" stroke="#6CA1B9" stroke-width="2" stroke-miterlimit="10" x1="33.2" y1="276.6" x2="135.9" y2="276.6"/>
			<line fill="none" stroke="#6CA1B9" stroke-width="2" stroke-miterlimit="10" x1="33.2" y1="284.8" x2="135.9" y2="284.8"/>
			<line fill="none" stroke="#6CA1B9" stroke-width="2" stroke-miterlimit="10" x1="33.2" y1="293" x2="135.9" y2="293"/>
			<line fill="none" stroke="#6CA1B9" stroke-width="2" stroke-miterlimit="10" x1="33.2" y1="301.3" x2="135.9" y2="301.3"/>
			<line fill="none" stroke="#6CA1B9" stroke-width="2" stroke-miterlimit="10" x1="33.2" y1="309.1" x2="135.9" y2="309.1"/>
		</g>
		<g>
			<path fill="none" stroke="#0272AE" stroke-width="2" stroke-miterlimit="10" d="M131.3,491.3c0.9,0,1.7-0.9,1.7-1.7V369.9
				c0-0.9-0.9-1.7-1.7-1.7H69.8c-1.2,0-1.7,0.9-1.7,1.7v119.8c0,0.9,0.9,1.7,1.7,1.7L131.3,491.3L131.3,491.3z"/>
			<g>
				<polyline fill="none" stroke="#0272AE" stroke-width="2" stroke-miterlimit="10" points="75.8,491.6 75.8,496.4 71.6,496.4 
					71.6,491.6 				"/>
				<polyline fill="none" stroke="#0272AE" stroke-width="2" stroke-miterlimit="10" points="130.2,491.6 130.2,496.4 125.7,496.4 
					125.7,491.6 				"/>
			</g>
			<line fill="none" stroke="#0272AE" stroke-width="2" stroke-miterlimit="10" x1="133.3" y1="444.1" x2="68.1" y2="444.1"/>
			
				<line fill="none" stroke="#0272AE" stroke-width="2" stroke-linecap="round" stroke-linejoin="round" stroke-miterlimit="10" x1="122.8" y1="433.3" x2="122.8" y2="393.5"/>
			
				<line fill="none" stroke="#0272AE" stroke-width="2" stroke-linecap="round" stroke-linejoin="round" stroke-miterlimit="10" x1="122.8" y1="470.3" x2="122.8" y2="456.1"/>
		</g>
	</g>
</g>
</svg>
