<?xml version="1.0" encoding="utf-8"?>
<!-- Generator: Adobe Illustrator 17.1.0, SVG Export Plug-In . SVG Version: 6.00 Build 0)  -->
<!DOCTYPE svg PUBLIC "-//W3C//DTD SVG 1.1//EN" "http://www.w3.org/Graphics/SVG/1.1/DTD/svg11.dtd">
<svg version="1.1" id="Layer_1" xmlns="http://www.w3.org/2000/svg" xmlns:xlink="http://www.w3.org/1999/xlink" x="0px" y="0px"
	 viewBox="0 100 800 600" enable-background="new 0 100 800 600" xml:space="preserve">
<g id="Layer_1_1_">
</g>
<g id="paperFull">
	<rect x="198.2" y="119.5" fill="none" stroke="#6EA0BC" stroke-width="3" stroke-miterlimit="10" width="419.7" height="559.6"/>
	<g>
		<path fill="#6EA0BC" d="M242.8,163.5c0,4.6-1.2,8.1-3.7,10.5s-6.1,3.6-10.7,3.6h-7.7v-27.7h8.5c4.3,0,7.7,1.2,10.1,3.6
			C241.6,155.9,242.8,159.2,242.8,163.5z M239.3,163.6c0-3.6-0.9-6.3-2.7-8.2c-1.8-1.8-4.5-2.8-8.1-2.8h-4.7v22.2h3.9
			c3.8,0,6.7-0.9,8.7-2.8C238.4,170.2,239.3,167.4,239.3,163.6z"/>
		<path fill="#6EA0BC" d="M264.4,177.7h-15.5v-27.8h15.5v2.9h-12.3v8.9h11.5v2.8h-11.5v10.2h12.3V177.7z"/>
		<path fill="#6EA0BC" d="M270.6,177.7v-27.8h3.2v24.8h12.3v2.9L270.6,177.7L270.6,177.7z"/>
		<path fill="#6EA0BC" d="M299.3,177.7h-3.2v-24.9h-8.8v-2.9h20.8v2.9h-8.8V177.7z"/>
		<path fill="#6EA0BC" d="M329.7,177.7l-3.5-8.8h-11.1l-3.4,8.8h-3.2l11-27.9h2.7l10.9,27.9H329.7z M325.3,165.9l-3.2-8.6
			c-0.4-1.1-0.8-2.4-1.3-4c-0.3,1.2-0.7,2.6-1.2,4l-3.3,8.6H325.3z"/>
		<path fill="#6EA0BC" d="M336.6,177.7v-27.8h5.9v22.9h11.3v4.9C353.8,177.7,336.6,177.7,336.6,177.7z"/>
		<path fill="#6EA0BC" d="M381.2,149.9v18c0,2.1-0.5,3.8-1.4,5.4c-0.9,1.5-2.2,2.7-4,3.6c-1.7,0.8-3.8,1.2-6.2,1.2
			c-3.6,0-6.3-0.9-8.3-2.7c-2-1.8-3-4.3-3-7.5v-18h5.9v17c0,2.1,0.4,3.7,1.3,4.7c0.9,1,2.3,1.5,4.3,1.5c1.9,0,3.3-0.5,4.2-1.5
			c0.9-1,1.3-2.6,1.3-4.7v-17H381.2z"/>
		<path fill="#6EA0BC" d="M399.7,177.7l-6.7-21.8h-0.2c0.2,4.4,0.4,7.4,0.4,8.9v12.9h-5.3v-27.8h8l6.6,21.2h0.1l7-21.2h8v27.8h-5.5
			v-13.2c0-0.6,0-1.3,0-2.1c0-0.8,0.1-3,0.3-6.5h-0.2l-7.2,21.7L399.7,177.7L399.7,177.7z"/>
		<path fill="#6EA0BC" d="M424.6,177.7v-27.8h5.9v27.8H424.6z"/>
		<path fill="#6EA0BC" d="M462.1,177.7h-7.5l-12.1-21h-0.2c0.2,3.7,0.4,6.4,0.4,7.9v13.1h-5.2v-27.8h7.4l12.1,20.8h0.1
			c-0.2-3.6-0.3-6.2-0.3-7.7v-13.1h5.3V177.7z"/>
	</g>
	<rect x="216.8" y="211.1" opacity="0.5" fill="#6EA0BC" enable-background="new    " width="358.1" height="13.6"/>
	<rect x="250.5" y="234.2" opacity="0.5" fill="#6EA0BC" enable-background="new    " width="324.5" height="13.6"/>
	<rect x="250.5" y="257.3" opacity="0.5" fill="#6EA0BC" enable-background="new    " width="324.5" height="13.6"/>
	<rect x="250.5" y="280.4" opacity="0.5" fill="#6EA0BC" enable-background="new    " width="324.5" height="13.6"/>
	<rect x="220.6" y="321.3" opacity="0.5" fill="#6EA0BC" enable-background="new    " width="358.1" height="13.6"/>
	<rect x="254.3" y="344.4" opacity="0.5" fill="#6EA0BC" enable-background="new    " width="324.5" height="13.6"/>
	<rect x="254.3" y="367.4" opacity="0.5" fill="#6EA0BC" enable-background="new    " width="324.5" height="13.6"/>
	<rect x="254.3" y="390.5" opacity="0.5" fill="#6EA0BC" enable-background="new    " width="324.5" height="13.6"/>
	<rect x="216.8" y="436.1" opacity="0.5" fill="#6EA0BC" enable-background="new    " width="358.1" height="13.6"/>
	<rect x="250.5" y="459.2" opacity="0.5" fill="#6EA0BC" enable-background="new    " width="324.5" height="13.6"/>
	<rect x="250.5" y="482.3" opacity="0.5" fill="#6EA0BC" enable-background="new    " width="324.5" height="13.6"/>
	<rect x="250.5" y="505.3" opacity="0.5" fill="#6EA0BC" enable-background="new    " width="324.5" height="13.6"/>
	<rect x="216.8" y="542.7" opacity="0.5" fill="#6EA0BC" enable-background="new    " width="358.1" height="13.6"/>
	<rect x="216.8" y="564.9" opacity="0.5" fill="#6EA0BC" enable-background="new    " width="358.1" height="13.6"/>
	<rect x="250.5" y="589" opacity="0.5" fill="#6EA0BC" enable-background="new    " width="324.5" height="13.6"/>
	<rect x="250.5" y="612.1" opacity="0.5" fill="#6EA0BC" enable-background="new    " width="324.5" height="13.6"/>
	<rect x="250.5" y="635.2" opacity="0.5" fill="#6EA0BC" enable-background="new    " width="324.5" height="13.6"/>
</g>
</svg>
