<?xml version="1.0" encoding="utf-8"?>
<!-- Generator: Adobe Illustrator 17.1.0, SVG Export Plug-In . SVG Version: 6.00 Build 0)  -->
<!DOCTYPE svg PUBLIC "-//W3C//DTD SVG 1.1//EN" "http://www.w3.org/Graphics/SVG/1.1/DTD/svg11.dtd">
<svg version="1.1" xmlns="http://www.w3.org/2000/svg" xmlns:xlink="http://www.w3.org/1999/xlink" x="0px" y="0px"
	 viewBox="0 0 800 400" enable-background="new 0 0 800 400" xml:space="preserve">
<g id="Layer_1">
</g>
<g id="computer">
	<g opacity="0.4">
		<g id="XMLID_2_">
			<g>
				<path fill="#66A1B5" d="M731.5,370l0.4,0.1c0,12.4-2.3,22.5-5.1,22.5l-0.1,0.5H75.8v-0.5c-2.8,0-5.1-10-5.1-22.5l0.3-0.1
					c-0.8-1.5-0.1-3.5,2.8-6l56.9-43.5c-1.1-1.9-1.7-4.2-1.7-6.6V18.9c0-6.6,4.5-11.9,10.1-11.9h526.1c5.6,0,10.1,5.3,10.1,11.9
					v294.9c0,2.9-0.9,5.6-2.4,7.7l56.3,43C731.7,366.7,732.3,368.6,731.5,370z"/>
			</g>
			<g>
			</g>
		</g>
	</g>
	<g>
		<g id="XMLID_1_">
			<g>
				<rect x="144.8" y="22.4" fill="#66A1B5" width="515" height="284.4"/>
			</g>
			<g>
				<path fill="none" stroke="#66A1B5" stroke-width="3" stroke-miterlimit="10" d="M131.2,320.8c-0.1-0.1-0.1-0.2-0.2-0.3
					c-1.1-1.9-1.7-4.2-1.7-6.6V18.9c0-6.6,4.5-11.9,10.1-11.9h526.1c5.6,0,10.1,5.3,10.1,11.9v294.9c0,2.9-0.9,5.6-2.4,7.7
					c-0.2,0.2-0.4,0.5-0.6,0.7"/>
				<polyline fill="none" stroke="#66A1B5" stroke-width="3" stroke-miterlimit="10" points="134.9,317.4 131,320.4 74.1,363.9 
					73.4,364.5 				"/>
				<polyline fill="none" stroke="#66A1B5" stroke-width="3" stroke-miterlimit="10" points="668,317.4 673.2,321.5 729.5,364.5 
					731,365.6 				"/>
				<polyline fill="none" stroke="#66A1B5" stroke-width="3" stroke-miterlimit="10" points="77.7,373.1 81.2,373.1 721.8,373.1 
					724.7,373.1 				"/>
				<line fill="none" stroke="#66A1B5" stroke-width="3" stroke-miterlimit="10" x1="134.9" y1="317.3" x2="668" y2="317.3"/>
				<polyline fill="none" stroke="#66A1B5" stroke-width="3" stroke-miterlimit="10" points="75.7,393 76.1,393 726.9,393 				"/>
				<path fill="none" stroke="#66A1B5" stroke-width="3" stroke-miterlimit="10" d="M74.1,363.9c-3,2.5-3.7,4.5-2.8,6
					c1.1,2.1,5.1,3.1,9.9,3.1"/>
				<path fill="none" stroke="#66A1B5" stroke-width="3" stroke-miterlimit="10" d="M728.9,363.9c0.2,0.2,0.4,0.4,0.6,0.5
					c2.5,2.3,3,4.1,2.2,5.5c-1.1,2.1-5.1,3.1-9.9,3.1"/>
				<path fill="none" stroke="#66A1B5" stroke-width="3" stroke-miterlimit="10" d="M71,370c0,12.4,2.3,22.5,5.1,22.5"/>
				<path fill="none" stroke="#66A1B5" stroke-width="3" stroke-miterlimit="10" d="M732.1,370c0,12.4-2.3,22.5-5.1,22.5"/>
				<line fill="none" stroke="#66A1B5" stroke-width="3" stroke-miterlimit="10" x1="158.1" y1="323.9" x2="641.2" y2="323.9"/>
				<line fill="none" stroke="#66A1B5" stroke-width="3" stroke-miterlimit="10" x1="158.1" y1="323.9" x2="132.7" y2="344.4"/>
				<line fill="none" stroke="#66A1B5" stroke-width="3" stroke-miterlimit="10" x1="641.2" y1="323.9" x2="666.7" y2="344.4"/>
				<line fill="none" stroke="#66A1B5" stroke-width="3" stroke-miterlimit="10" x1="132.7" y1="344.4" x2="666.7" y2="344.4"/>
				<polygon fill="none" stroke="#66A1B5" stroke-width="3" stroke-miterlimit="10" points="473.6,367.6 331.4,367.6 342.7,348.5 
					465.8,348.5 				"/>
			</g>
		</g>
	</g>
</g>
</svg>
