<?xml version="1.0" encoding="utf-8"?>
<!-- Generator: Adobe Illustrator 17.1.0, SVG Export Plug-In . SVG Version: 6.00 Build 0)  -->
<!DOCTYPE svg PUBLIC "-//W3C//DTD SVG 1.1//EN" "http://www.w3.org/Graphics/SVG/1.1/DTD/svg11.dtd">
<svg version="1.1" xmlns="http://www.w3.org/2000/svg" xmlns:xlink="http://www.w3.org/1999/xlink" x="0px" y="0px"
	 viewBox="0 0 800 600" enable-background="new 0 0 800 600" xml:space="preserve">
<g id="Layer_1">
</g>
<g id="program">
	
		<rect x="672.8" y="94.4" fill="none" stroke="#231F20" stroke-width="3.9876" stroke-linecap="round" stroke-miterlimit="10" width="67" height="67"/>
	
		<rect x="672.4" y="268.7" fill="none" stroke="#231F20" stroke-width="3.9876" stroke-linecap="round" stroke-miterlimit="10" width="67" height="67"/>
	
		<rect x="673" y="437.8" fill="none" stroke="#231F20" stroke-width="3.9876" stroke-linecap="round" stroke-miterlimit="10" width="67" height="67"/>
	
		<line fill="none" stroke="#668D3D" stroke-width="19.9379" stroke-linecap="round" stroke-miterlimit="10" x1="673.3" y1="111.9" x2="706.8" y2="145.4"/>
	
		<line fill="none" stroke="#668D3D" stroke-width="19.9379" stroke-linecap="round" stroke-miterlimit="10" x1="706.8" y1="145.4" x2="768.5" y2="83.7"/>
	
		<line fill="none" stroke="#668D3D" stroke-width="19.9379" stroke-linecap="round" stroke-miterlimit="10" x1="674" y1="285.5" x2="707.5" y2="319"/>
	
		<line fill="none" stroke="#668D3D" stroke-width="19.9379" stroke-linecap="round" stroke-miterlimit="10" x1="707.5" y1="319" x2="769.2" y2="257.3"/>
	
		<line fill="none" stroke="#668D3D" stroke-width="19.9379" stroke-linecap="round" stroke-miterlimit="10" x1="673" y1="454.5" x2="706.5" y2="488"/>
	
		<line fill="none" stroke="#668D3D" stroke-width="19.9379" stroke-linecap="round" stroke-miterlimit="10" x1="706.5" y1="488" x2="768.2" y2="426.3"/>
	<g>
		<path fill="none" stroke="#D68C2A" stroke-width="3.9876" stroke-miterlimit="10" d="M135.8,100.5c0-23.1-18.8-41.9-41.9-41.9
			s-41.9,18.8-41.9,41.9c0,16.1,15.8,30.1,15.8,30.1c3.9,3.7,7.9,11.5,7.9,17v27c0,5.4,1.8,9.4,7.2,9.4h21.6c5.5,0,7.6-3.9,7.6-9.4
			v-27.6c0-5.5,4.5-13.4,8.5-17C120.7,130,135.8,116,135.8,100.5z"/>
		<line fill="none" stroke="#D68C2A" stroke-width="3.9876" stroke-miterlimit="10" x1="75.8" y1="165.4" x2="112.1" y2="165.4"/>
		<line fill="none" stroke="#D68C2A" stroke-width="3.9876" stroke-miterlimit="10" x1="75.8" y1="156.4" x2="112.1" y2="156.4"/>
		<line fill="none" stroke="#D68C2A" stroke-width="3.9876" stroke-miterlimit="10" x1="75.8" y1="174.6" x2="112.1" y2="174.6"/>
	</g>
	<g>
		<g>
			<path fill="none" stroke="#6BA0B8" stroke-width="3.9876" stroke-miterlimit="10" d="M145.7,329.4c0,1.6-1.3,2.8-2.8,2.8H30.5
				c-1.6,0-2.8-1.3-2.8-2.8v-69.2c0-1.6,1.3-2.8,2.8-2.8h112.4c1.6,0,2.8,1.3,2.8,2.8L145.7,329.4L145.7,329.4z"/>
		</g>
		<path fill="#6BA0B8" d="M127,261.7c1.8,0,3.4,1.3,3.4,2.9c0,1.6-1.5,2.9-3.4,2.9s-3.4-1.3-3.4-2.9
			C123.7,263.1,125.2,261.7,127,261.7z"/>
		<path fill="#6BA0B8" d="M115.1,261.7c1.8,0,3.3,1.3,3.3,2.9c0,1.6-1.5,2.9-3.3,2.9c-1.8,0-3.4-1.3-3.4-2.9
			C111.8,263.1,113.3,261.7,115.1,261.7z"/>
		<line fill="none" stroke="#6BA0B8" stroke-width="3.9876" stroke-miterlimit="10" x1="65.2" y1="257.3" x2="65.2" y2="272.9"/>
		<line fill="none" stroke="#6BA0B8" stroke-width="3.9876" stroke-miterlimit="10" x1="28" y1="272.9" x2="145.1" y2="272.9"/>
		<g>
			<line fill="none" stroke="#6BA0B8" stroke-width="3.9876" stroke-miterlimit="10" x1="35.5" y1="285.1" x2="137.9" y2="285.1"/>
			<line fill="none" stroke="#6BA0B8" stroke-width="3.9876" stroke-miterlimit="10" x1="35.5" y1="293.3" x2="137.9" y2="293.3"/>
			<line fill="none" stroke="#6BA0B8" stroke-width="3.9876" stroke-miterlimit="10" x1="35.5" y1="301.5" x2="137.9" y2="301.5"/>
			<line fill="none" stroke="#6BA0B8" stroke-width="3.9876" stroke-miterlimit="10" x1="35.5" y1="309.7" x2="137.9" y2="309.7"/>
			<line fill="none" stroke="#6BA0B8" stroke-width="3.9876" stroke-miterlimit="10" x1="35.5" y1="317.5" x2="137.9" y2="317.5"/>
		</g>
	</g>
	<g>
		<path fill="none" stroke="#0071AD" stroke-width="3.9876" stroke-miterlimit="10" d="M123.6,527.8c0.9,0,1.7-0.9,1.7-1.7v-116
			c0-0.9-0.9-1.6-1.7-1.6H64c-1.1,0-1.7,0.9-1.7,1.6v116.1c0,0.9,0.9,1.6,1.7,1.6L123.6,527.8L123.6,527.8z"/>
		<g>
			<polyline fill="none" stroke="#0071AD" stroke-width="3.9876" stroke-miterlimit="10" points="69.8,528.1 69.8,532.8 65.8,532.8 
				65.8,528.1 			"/>
			<polyline fill="none" stroke="#0071AD" stroke-width="3.9876" stroke-miterlimit="10" points="122.5,528.1 122.5,532.8 
				118.1,532.8 118.1,528.1 			"/>
		</g>
		<line fill="none" stroke="#0071AD" stroke-width="3.9876" stroke-miterlimit="10" x1="125.5" y1="482" x2="62.3" y2="482"/>
		
			<line fill="none" stroke="#0071AD" stroke-width="3.9876" stroke-linecap="round" stroke-linejoin="round" stroke-miterlimit="10" x1="115.3" y1="471.6" x2="115.3" y2="433"/>
		
			<line fill="none" stroke="#0071AD" stroke-width="3.9876" stroke-linecap="round" stroke-linejoin="round" stroke-miterlimit="10" x1="115.3" y1="507.4" x2="115.3" y2="493.7"/>
	</g>
	<path fill="none" stroke="#D68C2A" stroke-width="3.9876" stroke-miterlimit="10" d="M790.3,185.7c0,8.5-9.2,15.5-20.7,15.5H29.1
		c-11.4,0-20.7-6.9-20.7-15.5V57.3c0-8.5,9.2-15.5,20.7-15.5h740.5c11.4,0,20.7,6.9,20.7,15.5V185.7z"/>
	<path fill="none" stroke="#6BA0B8" stroke-width="3.9876" stroke-miterlimit="10" d="M789.6,358.6c0,8.5-9.2,15.5-20.7,15.5H28.4
		c-11.4,0-20.7-6.9-20.7-15.5V230.1c0-8.5,9.2-15.5,20.7-15.5h740.5c11.4,0,20.7,6.9,20.7,15.5V358.6z"/>
	<path fill="none" stroke="#0071AD" stroke-width="3.9876" stroke-miterlimit="10" d="M789.6,533.4c0,8.5-9.2,15.5-20.7,15.5H28.4
		c-11.4,0-20.7-6.9-20.7-15.5V404.9c0-8.5,9.2-15.5,20.7-15.5h740.5c11.4,0,20.7,6.9,20.7,15.5V533.4z"/>
	<text transform="matrix(1 0 0 1 164.1815 114.6158)"><tspan x="0" y="0" fill="#D68C2A" font-family="'Open Sans'" font-size="47.851">ComEd Lighting</tspan><tspan x="0" y="53.5" fill="#D68C2A" font-family="'Open Sans'" font-size="47.851">Discount</tspan></text>
	<text transform="matrix(1 0 0 1 164.1815 286.8052)"><tspan x="0" y="0" fill="#6BA0B8" font-family="'Open Sans'" font-size="47.851">ComEd Central</tspan><tspan x="0" y="53.5" fill="#6BA0B8" font-family="'Open Sans'" font-size="47.851">AC Cycling</tspan></text>
	<text transform="matrix(1 0 0 1 164.1815 462.8599)"><tspan x="0" y="0" fill="#0071AD" font-family="'Open Sans'" font-size="47.851">ComEd Refrigerator</tspan><tspan x="0" y="53.5" fill="#0071AD" font-family="'Open Sans'" font-size="47.851">and Freezer Recycling</tspan></text>
</g>
</svg>
