<?xml version="1.0" encoding="utf-8"?>
<!-- Generator: Adobe Illustrator 17.1.0, SVG Export Plug-In . SVG Version: 6.00 Build 0)  -->
<!DOCTYPE svg PUBLIC "-//W3C//DTD SVG 1.1//EN" "http://www.w3.org/Graphics/SVG/1.1/DTD/svg11.dtd">
<svg version="1.1" xmlns="http://www.w3.org/2000/svg" xmlns:xlink="http://www.w3.org/1999/xlink" x="0px" y="0px"
	 viewBox="0 0 800 700" enable-background="new 0 0 800 700" xml:space="preserve">
<symbol  id="billsofar_x5F_desktop" viewBox="-43 -32.5 86 64.9">
	<path fill="#FFFFFF" stroke="#658C3D" stroke-linecap="round" stroke-linejoin="round" stroke-miterlimit="10" d="M28.8,32h-56.2
		c-7.9,0-15.1-5.7-15.1-13.7V-9.8c0-7.9,7.2-15.1,15.1-15.1H-7L0.6-32l7.5,7.1h20.7c8,0,13.7,7.2,13.7,15.1v28.1
		C42.5,26.2,36.8,32,28.8,32z"/>
</symbol>
<symbol  id="forecast_x5F_m1_x5F_desk" viewBox="-149.6 -171.9 299.2 254.4">
	<polygon fill="#E6E6E5" points="63.1,42.5 23.1,42.5 23.1,82.5 63.1,82.5 	"/>
	<g>
		<polygon fill="#E6E6E5" points="106.3,42.5 66.3,42.5 66.3,82.5 106.3,82.5 		"/>
	</g>
	<g>
		<polygon fill="#E6E6E5" points="149.6,42.5 109.6,42.5 109.6,82.5 149.6,82.5 		"/>
	</g>
	<g>
		<polygon fill="#E6E6E5" points="-109.6,-0.8 -149.6,-0.8 -149.6,39.2 -109.6,39.2 		"/>
	</g>
	<g>
		<polygon fill="#E6E6E5" points="-66.4,-0.8 -106.4,-0.8 -106.4,39.2 -66.4,39.2 		"/>
	</g>
	<g>
		<polygon fill="#E6E6E5" points="-23.3,-0.8 -63.3,-0.8 -63.3,39.2 -23.3,39.2 		"/>
	</g>
	<g>
		<polygon fill="#E6E6E5" points="19.9,-0.8 -20.1,-0.8 -20.1,39.2 19.9,39.2 		"/>
	</g>
	<g>
		<polygon fill="#E6E6E5" points="63.1,-0.8 23.1,-0.8 23.1,39.2 63.1,39.2 		"/>
	</g>
	<g>
		<polygon fill="#E6E6E5" points="106.3,-0.8 66.3,-0.8 66.3,39.2 106.3,39.2 		"/>
	</g>
	<g>
		<polygon fill="#E6E6E5" points="149.6,-0.8 109.6,-0.8 109.6,39.2 149.6,39.2 		"/>
	</g>
	<g>
		<path fill="#E6E6E5" d="M105.3-5v-38h-38v38H105.3 M106.3-4h-40v-40h40V-4L106.3-4z"/>
	</g>
	<g>
		<path fill="#E6E6E5" d="M148.6-5v-38h-38v38H148.6 M149.6-4h-40v-40h40V-4L149.6-4z"/>
	</g>
	<g>
		<path fill="#E6E6E5" d="M105.3-48.1v-38h-38v38H105.3 M106.3-47.1h-40v-40h40V-47.1L106.3-47.1z"/>
	</g>
	<g>
		<path fill="#E6E6E5" d="M148.6-48.1v-38h-38v38H148.6 M149.6-47.1h-40v-40h40V-47.1L149.6-47.1z"/>
	</g>
	<g>
		<polygon fill="#E6E6E5" points="-109.6,-44 -149.6,-44 -149.6,-4 -109.6,-4 		"/>
	</g>
	<g>
		<polygon fill="#658C3D" points="-66.4,-44 -106.4,-44 -106.4,-4 -66.4,-4 		"/>
	</g>
	<g>
		<path fill="#E6E6E5" d="M-24.3-5v-38h-38v38H-24.3 M-23.3-4h-40v-40h40V-4L-23.3-4z"/>
	</g>
	<g>
		<path fill="#E6E6E5" d="M18.9-5v-38h-38v38H18.9 M19.9-4h-40v-40h40V-4L19.9-4z"/>
	</g>
	<g>
		<path fill="#E6E6E5" d="M62.1-5v-38h-38v38H62.1 M63.1-4h-40v-40h40V-4L63.1-4z"/>
	</g>
	<g>
		<g>
			<path fill="#E6E6E5" d="M62.1-48.1v-38h-38v38H62.1 M63.1-47.1h-40v-40h40V-47.1L63.1-47.1z"/>
		</g>
	</g>
	<g>
		<path fill="#E6E6E5" d="M-110.6-48.1v-38h-38v38H-110.6 M-109.6-47.1h-40v-40h40V-47.1L-109.6-47.1z"/>
	</g>
	<g>
		<path fill="#E6E6E5" d="M-67.4-48.1v-38h-38v38H-67.4 M-66.4-47.1h-40v-40h40V-47.1L-66.4-47.1z"/>
	</g>
	<g>
		<path fill="#E6E6E5" d="M-24.3-48.1v-38h-38v38H-24.3 M-23.3-47.1h-40v-40h40V-47.1L-23.3-47.1z"/>
	</g>
	<g>
		<path fill="#E6E6E5" d="M-110.6-91v-38h-38v38H-110.6 M-109.6-90h-40v-40h40V-90L-109.6-90z"/>
	</g>
	<g>
		<path fill="#E6E6E5" d="M-67.4-91v-38h-38v38H-67.4 M-66.4-90h-40v-40h40V-90L-66.4-90z"/>
	</g>
	<g>
		<g>
			<path fill="#E6E6E5" d="M-24.3-91v-38h-38v38H-24.3 M-23.3-90h-40v-40h40V-90L-23.3-90z"/>
		</g>
	</g>
	<polygon fill="none" stroke="#E6E6E5" stroke-miterlimit="10" points="19.9,-87.1 -20.1,-87.1 -20.1,-47.1 19.9,-47.1 	"/>
	<polygon fill="none" points="-67.5,-44 -107.3,-44 -107.3,-7.3 -67.5,-7.3 	"/>
	<text transform="matrix(1.0185 0 0 -1 -101.6621 -20.0972)"><tspan x="0" y="0" fill="#FFFFFF" font-family="'Avenir'" font-size="18">Feb</tspan><tspan x="4.8" y="19" fill="#FFFFFF" font-family="'Avenir'" font-size="18">16</tspan></text>
	<g>
		<path fill="#E6E6E5" d="M19-91v-38h-38v38H19 M20-90h-40v-40h40V-90L20-90z"/>
	</g>
	<g>
		<polygon fill="#D88E2A" points="63.2,-130 23.2,-130 23.2,-90 63.2,-90 		"/>
	</g>
	<polygon fill="none" points="63.1,-130.7 23.3,-130.7 23.3,-94.1 63.1,-94.1 	"/>
	<text transform="matrix(1.0185 0 0 -1 28.416 -106.8789)"><tspan x="0" y="0" fill="#FFFFFF" font-family="'Avenir'" font-size="18">Mar</tspan><tspan x="9.9" y="19" fill="#FFFFFF" font-family="'Avenir'" font-size="18">5</tspan></text>
	<g>
		<polygon fill="none" points="124.8,-171.9 -38.5,-171.9 -38.5,-135.3 124.8,-135.3 		"/>
		<text transform="matrix(1.0185 0 0 -1 8.9795 -148.0442)"><tspan x="0" y="0" fill="#D88E2A" font-family="'Avenir'" font-size="18">Forecast:</tspan><tspan x="15.1" y="18" fill="#D88E2A" font-family="'Avenir'" font-size="18">$130</tspan></text>
	</g>
	
		<use xlink:href="#billsofar_x5F_desktop"  width="86" height="64.9" id="XMLID_3_" x="-43" y="-32.5" transform="matrix(1 0 0 1 -87.4326 31.8374)" overflow="visible"/>
	<g>
		<polygon fill="none" points="-46,15.3 -129.3,15.3 -129.3,52.9 -46,52.9 		"/>
		<text transform="matrix(1.0185 0 0 -1 -112.0283 40.1118)"><tspan x="0" y="0" fill="#658C3D" font-family="'Avenir'" font-size="18">Spent:</tspan><tspan x="-1" y="20" fill="#658C3D" font-family="'Avenir'" font-size="18">$52.40</tspan></text>
	</g>
</symbol>
<g id="Layer_1">
</g>
<g id="website">
	<g id="Color_Palette">
		
			<use xlink:href="#forecast_x5F_m1_x5F_desk"  width="299.2" height="254.4" id="XMLID_5_" x="-149.6" y="-171.9" transform="matrix(2.604 0 0 -2.604 401.5929 223.3279)" overflow="visible"/>
	</g>
</g>
<g id="Isolation_Mode">
</g>
</svg>
