<?xml version="1.0" encoding="utf-8"?>
<!-- Generator: Adobe Illustrator 17.1.0, SVG Export Plug-In . SVG Version: 6.00 Build 0)  -->
<!DOCTYPE svg PUBLIC "-//W3C//DTD SVG 1.1//EN" "http://www.w3.org/Graphics/SVG/1.1/DTD/svg11.dtd">
<svg version="1.1" xmlns="http://www.w3.org/2000/svg" xmlns:xlink="http://www.w3.org/1999/xlink" x="0px" y="0px"
	 viewBox="0 0 400 350" enable-background="new 0 0 400 350" xml:space="preserve">
<symbol  id="billsofar" viewBox="-66 -55.4 134 90.8">
	
		<path fill="#FFFFFF" stroke="#648B3D" stroke-width="2" stroke-linecap="round" stroke-linejoin="round" stroke-miterlimit="10" d="
		M48,34.4h-92c-11,0-21-8-21-19v-39c0-11,10-21,21-21h35.3l10.5-9.8l10.5,9.8H48c11,0,19,10,19,21v39C67,26.4,59,34.4,48,34.4z"/>
</symbol>
<symbol  id="forecast_x5F_m2_x5F_mobile" viewBox="-217.2 -185 432 376.6">
	<g id="forecast_6_1_">
		<polygon fill="#FFFFFF" points="214.8,-185 -217.2,-185 -217.2,191.6 214.8,191.6 		"/>
		<g>
			<polygon fill="#656E72" points="139,119.3 86,119.3 86,172.3 139,172.3 			"/>
		</g>
		<g>
			<polygon fill="#656E72" points="196.7,119.3 143.7,119.3 143.7,172.3 196.7,172.3 			"/>
		</g>
		<g>
			<polygon fill="#656E72" points="-148.4,61.7 -201.4,61.7 -201.4,114.7 -148.4,114.7 			"/>
		</g>
		<g>
			<polygon fill="#656E72" points="-90.9,61.7 -143.9,61.7 -143.9,114.7 -90.9,114.7 			"/>
		</g>
		<g>
			<polygon fill="#656E72" points="-33.5,61.7 -86.5,61.7 -86.5,114.7 -33.5,114.7 			"/>
		</g>
		<g>
			<polygon fill="#656E72" points="24,61.7 -29,61.7 -29,114.7 24,114.7 			"/>
		</g>
		<g>
			<polygon fill="#656E72" points="81.5,61.7 28.5,61.7 28.5,114.7 81.5,114.7 			"/>
		</g>
		<g>
			<polygon fill="#656E72" points="139,61.7 86,61.7 86,114.7 139,114.7 			"/>
		</g>
		<g>
			<polygon fill="#656E72" points="196.7,61.7 143.7,61.7 143.7,114.7 196.7,114.7 			"/>
		</g>
		<g>
			<g>
				<path fill="#656E72" d="M138,56.2v-51H87v51H138 M139,57.2H86v-53h53V57.2L139,57.2z"/>
			</g>
		</g>
		<g>
			<g>
				<path fill="#656E72" d="M195.7,56.2v-51h-51v51H195.7 M196.7,57.2h-53v-53h53V57.2L196.7,57.2z"/>
			</g>
		</g>
		<g>
			<polygon fill="#656E72" points="-148.4,4.2 -201.4,4.2 -201.4,57.2 -148.4,57.2 			"/>
		</g>
		<g>
			<polygon fill="#648B3D" points="-90.9,4.2 -143.9,4.2 -143.9,57.2 -90.9,57.2 			"/>
		</g>
		<g>
			<g>
				<path fill="#656E72" d="M-34.5,56.2v-51h-51v51H-34.5 M-33.5,57.2h-53v-53h53V57.2L-33.5,57.2z"/>
			</g>
		</g>
		<g>
			<g>
				<path fill="#656E72" d="M23,56.2v-51h-51v51H23 M24,57.2h-53v-53h53V57.2L24,57.2z"/>
			</g>
		</g>
		<g>
			<g>
				<path fill="#656E72" d="M80.5,56.2v-51h-51v51H80.5 M81.5,57.2h-53v-53h53V57.2L81.5,57.2z"/>
			</g>
		</g>
		<g>
			<g>
				<path fill="#656E72" d="M-149.4-1.3v-51h-51v51H-149.4 M-148.4-0.3h-53v-53h53V-0.3L-148.4-0.3z"/>
			</g>
		</g>
		<g>
			<polygon fill="#D68C2A" points="-148.4,-168.1 -201.4,-168.1 -201.4,-115.1 -148.4,-115.1 			"/>
		</g>
		<g>
			<g>
				<path fill="#656E72" d="M-91.9-1.3v-51h-51v51H-91.9 M-90.9-0.3h-53v-53h53V-0.3L-90.9-0.3z"/>
			</g>
		</g>
		<g>
			<g>
				<path fill="#656E72" d="M-34.5-1.3v-51h-51v51H-34.5 M-33.5-0.3h-53v-53h53V-0.3L-33.5-0.3z"/>
			</g>
		</g>
		<g>
			<g>
				<path fill="#656E72" d="M-91.9-58.5v-51h-51v51H-91.9 M-90.9-57.5h-53v-53h53V-57.5L-90.9-57.5z"/>
			</g>
		</g>
		<g>
			<g>
				<path fill="#656E72" d="M-149.4-58.5v-51h-51v51H-149.4 M-148.4-57.5h-53v-53h53V-57.5L-148.4-57.5z"/>
			</g>
		</g>
		<g>
			<g>
				<path fill="#656E72" d="M-34.5-58.5v-51h-51v51H-34.5 M-33.5-57.5h-53v-53h53V-57.5L-33.5-57.5z"/>
			</g>
		</g>
		<g>
			<g>
				<path fill="#656E72" d="M80.5-1.3v-51h-51v51H80.5 M81.5-0.3h-53v-53h53V-0.3L81.5-0.3z"/>
			</g>
		</g>
		<g>
			<g>
				<path fill="#656E72" d="M138-1.3v-51H87v51H138 M139-0.3H86v-53h53V-0.3L139-0.3z"/>
			</g>
		</g>
		<g>
			<g>
				<path fill="#656E72" d="M195.5-1.3v-51h-51v51H195.5 M196.5-0.3h-53v-53h53V-0.3L196.5-0.3z"/>
			</g>
		</g>
		<g>
			<g>
				<path fill="#656E72" d="M23-1.3v-51h-51v51H23 M24-0.3h-53v-53h53V-0.3L24-0.3z"/>
			</g>
		</g>
		<g>
			<g>
				<path fill="#656E72" d="M80.5-58.5v-51h-51v51H80.5 M81.5-57.5h-53v-53h53V-57.5L81.5-57.5z"/>
			</g>
		</g>
		<g>
			<g>
				<path fill="#656E72" d="M138-58.5v-51H87v51H138 M139-57.5H86v-53h53V-57.5L139-57.5z"/>
			</g>
		</g>
		<g>
			<g>
				<path fill="#656E72" d="M195.5-58.5v-51h-51v51H195.5 M196.5-57.5h-53v-53h53V-57.5L196.5-57.5z"/>
			</g>
		</g>
		<g>
			<g>
				<path fill="#656E72" d="M23-58.5v-51h-51v51H23 M24-57.5h-53v-53h53V-57.5L24-57.5z"/>
			</g>
		</g>
		
			<use xlink:href="#billsofar"  width="134" height="90.8" id="XMLID_4_" x="-66" y="-55.4" transform="matrix(1 0 0 1 -119.6235 116.3237)" overflow="visible"/>
		<g>
			<polygon fill="none" points="-34.9,73.8 -203.2,73.8 -203.2,129.7 -34.9,129.7 			"/>
			
				<text transform="matrix(1.0185 0 0 -1 -168.9463 101.3472)" fill="#648B3D" font-family="'AvenirNextLTPro-Regular'" font-size="40">Spent</text>
		</g>
	</g>
</symbol>
<g id="Layer_1">
</g>
<g id="time">
</g>
<g id="predictive">
	
		<use xlink:href="#forecast_x5F_m2_x5F_mobile"  width="432" height="376.6" id="XMLID_2_" x="-217.2" y="-185" transform="matrix(0.9035 0 0 -0.9035 201.4753 177.769)" overflow="visible"/>
</g>
</svg>
