<?xml version="1.0" encoding="utf-8"?>
<!-- Generator: Adobe Illustrator 17.1.0, SVG Export Plug-In . SVG Version: 6.00 Build 0)  -->
<!DOCTYPE svg PUBLIC "-//W3C//DTD SVG 1.1//EN" "http://www.w3.org/Graphics/SVG/1.1/DTD/svg11.dtd">
<svg version="1.1" xmlns="http://www.w3.org/2000/svg" xmlns:xlink="http://www.w3.org/1999/xlink" x="0px" y="0px"
	 viewBox="0 0 800 400" enable-background="new 0 0 800 400" xml:space="preserve">
<g id="Layer_1">
</g>
<g id="paperFull">
</g>
<g id="helpful">
	<g id="XMLID_5_">
		<g>
			<path fill="#FFFFFF" d="M566.8,108.5V293c0,17.5-14.2,31.7-31.7,31.7H213.5l-62.4,57.5l10.9-57.3c-19.9,0-35.5-14-35.5-36.6
				V108.6c0-18.3,14.8-33.1,33.1-33.1h374.1C550.3,75.5,566.8,91.4,566.8,108.5z"/>
		</g>
		<g>
			<path fill="none" stroke="#67A2B6" stroke-width="8" stroke-miterlimit="10" d="M213.5,324.7h321.6c17.5,0,31.7-14.2,31.7-31.7
				V108.5c0-17.1-16.5-33-33-33H159.6c-18.3,0-33.1,14.8-33.1,33.1v179.7c0,22.6,15.6,36.6,35.5,36.6l-10.9,57.3L213.5,324.7z"/>
		</g>
	</g>
</g>
<g id="helpfulBackground">
</g>
<g id="eyeOpening">
	<g id="XMLID_1_">
		<g>
			<path fill="#67A2B6" d="M200.9,48.3v198c0,18.8,15.2,34,34,34h345.2l67,61.7l-11.7-61.5c21.3,0,38.1-15.1,38.1-39.3V48.4
				c0-19.6-15.9-35.5-35.5-35.5H236.3C218.6,12.8,200.9,29.9,200.9,48.3z"/>
		</g>
		<g>
			<path fill="none" stroke="#FFFFFF" stroke-width="8" stroke-miterlimit="10" d="M580.1,280.3H234.9c-18.8,0-34-15.2-34-34v-198
				c0-18.4,17.7-35.4,35.4-35.4h401.6c19.6,0,35.5,15.9,35.5,35.5v192.9c0,24.2-16.8,39.3-38.1,39.3l11.7,61.5L580.1,280.3z"/>
		</g>
	</g>
</g>
<g id="eyeOpeningBackground">
</g>
</svg>
